<?xml version="1.0" encoding="utf-8"?>
<!-- Generator: Adobe Illustrator 16.0.3, SVG Export Plug-In . SVG Version: 6.00 Build 0)  -->
<!DOCTYPE svg PUBLIC "-//W3C//DTD SVG 1.1//EN" "http://www.w3.org/Graphics/SVG/1.1/DTD/svg11.dtd">
<svg version="1.1" id="Layer_1" xmlns="http://www.w3.org/2000/svg" xmlns:xlink="http://www.w3.org/1999/xlink" x="0px" y="0px"
	 width="93px" height="73px" viewBox="0 0 93 73" enable-background="new 0 0 93 73" xml:space="preserve">
<path d="M93,73H0V0h93V73z M6,67h81V6H6V67z"/>
<path d="M80,73H13V0h67V73z M19,67h55V6H19V67z"/>
<path d="M19,60H0V14h19V60z M6,54h7V20H6V54z"/>
<path d="M19,47H0V27h19V47z M6,41h7v-8H6V41z"/>
<path d="M93,59H74V13h19V59z M80,53h7V19h-7V53z"/>
<path d="M93,46H74V26h19V46z M80,40h7v-8h-7V40z"/>
</svg>
